<svg width="25" height="24" viewBox="0 0 25 24" fill="none" xmlns="http://www.w3.org/2000/svg">
<mask id="mask0_73_415" style="mask-type:luminance" maskUnits="userSpaceOnUse" x="0" y="0" width="25" height="24">
<path d="M24.02 0H0.97998V24H24.02V0Z" fill="white"/>
</mask>
<g mask="url(#mask0_73_415)">
<path d="M20.1799 3H19.2199V1H17.2999V3H7.6999V1H5.7799V3H4.8199C3.7639 3 2.8999 3.9 2.8999 5V21C2.8999 22.1 3.7639 23 4.8199 23H20.1799C21.2359 23 22.0999 22.1 22.0999 21V5C22.0999 3.9 21.2359 3 20.1799 3ZM20.1799 21H4.8199V10H20.1799V21ZM20.1799 8H4.8199V5H20.1799V8Z" fill="#00A3A2"/>
</g>
</svg>
