<svg width="25" height="24" viewBox="0 0 25 24" fill="none" xmlns="http://www.w3.org/2000/svg">
<mask id="mask0_73_403" style="mask-type:luminance" maskUnits="userSpaceOnUse" x="0" y="0" width="25" height="24">
<path d="M24.02 0H0.97998V24H24.02V0Z" fill="white"/>
</mask>
<g mask="url(#mask0_73_403)">
<path d="M11.5399 18H13.4599V16H11.5399V18ZM12.4999 2C7.2007 2 2.8999 6.48 2.8999 12C2.8999 17.52 7.2007 22 12.4999 22C17.7991 22 22.0999 17.52 22.0999 12C22.0999 6.48 17.7991 2 12.4999 2ZM12.4999 20C8.2663 20 4.8199 16.41 4.8199 12C4.8199 7.59 8.2663 4 12.4999 4C16.7335 4 20.1799 7.59 20.1799 12C20.1799 16.41 16.7335 20 12.4999 20ZM12.4999 6C10.3783 6 8.6599 7.79 8.6599 10H10.5799C10.5799 8.9 11.4439 8 12.4999 8C13.5559 8 14.4199 8.9 14.4199 10C14.4199 12 11.5399 11.75 11.5399 15H13.4599C13.4599 12.75 16.3399 12.5 16.3399 10C16.3399 7.79 14.6215 6 12.4999 6Z" fill="#00A3A2"/>
</g>
</svg>
