<svg width="40" height="40" viewBox="0 0 40 40" fill="none" xmlns="http://www.w3.org/2000/svg">
<g clip-path="url(#clip0_78_1016)">
<path d="M31.6667 6.66659H30V3.33325H26.6667V6.66659H13.3333V3.33325H10V6.66659H8.33333C6.48333 6.66659 5.01667 8.16659 5.01667 9.99992L5 33.3333C5 35.1666 6.48333 36.6666 8.33333 36.6666H31.6667C33.5 36.6666 35 35.1666 35 33.3333V9.99992C35 8.16659 33.5 6.66659 31.6667 6.66659ZM31.6667 33.3333H8.33333V16.6666H31.6667V33.3333ZM31.6667 13.3333H8.33333V9.99992H31.6667V13.3333ZM20 21.6666H28.3333V29.9999H20V21.6666Z" fill="#00A3A2"/>
</g>
<defs>
<clipPath id="clip0_78_1016">
<rect width="40" height="40" fill="white"/>
</clipPath>
</defs>
</svg>
