<svg width="593" height="414" viewBox="0 0 593 414" fill="none" xmlns="http://www.w3.org/2000/svg">
<g filter="url(#filter0_d_3_10433)">
<path d="M100.899 345.013C208.77 403.797 383.596 403.809 491.468 345.013C599.339 286.217 599.339 190.893 491.468 132.097C383.596 73.301 208.77 73.301 100.899 132.097C-6.9725 190.893 -6.9601 286.192 100.899 345.013Z" fill="white"/>
</g>
<path d="M159.178 324.204L234.329 367.601C246.554 374.656 266.38 374.656 278.606 367.601L462.805 261.255C475.031 254.2 475.031 242.755 462.805 235.688L387.655 192.291C375.417 185.236 355.591 185.236 343.366 192.291L159.178 298.638C146.941 305.693 146.941 317.137 159.178 324.204Z" fill="#EBEBEB"/>
<path d="M455.06 238.086C454.901 238.086 454.747 238.026 454.63 237.918C454.512 237.81 454.44 237.662 454.428 237.503C453.002 219.388 433.461 210.845 429.63 210.485C429.538 210.494 429.445 210.481 429.358 210.45C429.271 210.418 429.192 210.368 429.127 210.302C429.062 210.237 429.011 210.158 428.98 210.071C428.948 209.984 428.936 209.891 428.945 209.799C428.953 209.707 428.981 209.618 429.028 209.538C429.074 209.458 429.138 209.389 429.214 209.336C429.29 209.283 429.376 209.248 429.467 209.232C429.559 209.217 429.652 209.221 429.741 209.246C433.982 209.63 454.242 218.222 455.779 237.429C455.786 237.512 455.776 237.595 455.751 237.675C455.725 237.754 455.684 237.827 455.63 237.891C455.575 237.954 455.509 238.006 455.435 238.044C455.361 238.082 455.28 238.104 455.196 238.11L455.06 238.086Z" fill="white"/>
<path d="M463.963 234.478H463.814C463.732 234.46 463.656 234.426 463.588 234.379C463.519 234.331 463.462 234.27 463.418 234.199C463.374 234.129 463.345 234.05 463.332 233.968C463.319 233.886 463.322 233.802 463.343 233.721C467.397 215.78 487.855 199.19 495.32 196.375C495.484 196.316 495.665 196.325 495.823 196.399C495.981 196.474 496.104 196.608 496.163 196.772C496.222 196.937 496.213 197.118 496.139 197.276C496.065 197.434 495.93 197.556 495.766 197.615C488.488 200.368 468.488 216.536 464.582 234.056C464.538 234.183 464.453 234.293 464.342 234.369C464.23 234.444 464.097 234.483 463.963 234.478Z" fill="white"/>
<path d="M473.522 216.028C473.395 216.028 473.27 215.99 473.164 215.92C473.059 215.849 472.976 215.749 472.927 215.631C470.918 210.672 471.303 204.1 471.315 203.815C471.362 203.682 471.451 203.568 471.569 203.491C471.687 203.413 471.827 203.377 471.968 203.387C472.109 203.396 472.242 203.452 472.348 203.545C472.454 203.638 472.527 203.764 472.555 203.902C472.555 203.902 472.171 210.486 474.08 215.148C474.112 215.226 474.128 215.309 474.127 215.394C474.127 215.478 474.109 215.562 474.075 215.639C474.042 215.716 473.993 215.786 473.932 215.845C473.871 215.903 473.799 215.948 473.72 215.979C473.658 216.008 473.591 216.025 473.522 216.028Z" fill="white"/>
<path d="M483.169 228.501C480.366 228.501 473.175 228.117 467.546 224.422C467.404 224.33 467.305 224.186 467.271 224.021C467.236 223.855 467.268 223.683 467.36 223.542C467.452 223.4 467.596 223.301 467.762 223.266C467.927 223.232 468.099 223.264 468.24 223.356C474.874 227.708 484.173 227.212 484.272 227.2C484.356 227.195 484.44 227.206 484.52 227.234C484.599 227.262 484.672 227.306 484.735 227.362C484.797 227.419 484.848 227.488 484.883 227.564C484.919 227.64 484.939 227.723 484.942 227.807C484.947 227.89 484.935 227.973 484.908 228.052C484.881 228.131 484.838 228.203 484.783 228.265C484.728 228.328 484.661 228.378 484.586 228.415C484.511 228.451 484.43 228.472 484.347 228.477C484.198 228.489 483.776 228.501 483.169 228.501Z" fill="white"/>
<path d="M157.806 266.975C157.655 266.975 157.509 266.921 157.393 266.824C157.278 266.726 157.2 266.591 157.174 266.442C153.963 246.232 142.01 236.325 131.905 233.796C131.823 233.777 131.746 233.742 131.678 233.693C131.61 233.644 131.552 233.582 131.508 233.51C131.464 233.438 131.435 233.359 131.422 233.276C131.409 233.193 131.413 233.108 131.433 233.027C131.45 232.936 131.486 232.849 131.539 232.773C131.592 232.696 131.661 232.632 131.741 232.585C131.821 232.538 131.911 232.509 132.003 232.5C132.095 232.49 132.189 232.501 132.277 232.531C142.779 235.16 155.19 245.389 158.501 266.207C158.515 266.29 158.512 266.375 158.493 266.457C158.473 266.539 158.438 266.617 158.388 266.685C158.338 266.753 158.276 266.811 158.203 266.854C158.131 266.898 158.051 266.926 157.967 266.938L157.806 266.975Z" fill="white"/>
<path d="M159.418 291.972C159.286 291.971 159.158 291.93 159.049 291.855C158.941 291.78 158.858 291.673 158.81 291.55C152.76 274.688 128.011 259.425 119.778 258.457C119.611 258.436 119.46 258.35 119.355 258.218C119.251 258.086 119.203 257.918 119.22 257.751C119.239 257.582 119.324 257.427 119.456 257.32C119.589 257.213 119.758 257.163 119.927 257.18C128.383 258.185 153.814 273.832 160.013 291.116C160.043 291.195 160.056 291.279 160.052 291.363C160.049 291.448 160.029 291.53 159.993 291.606C159.957 291.683 159.907 291.751 159.844 291.807C159.781 291.864 159.708 291.907 159.629 291.935L159.418 291.972Z" fill="white"/>
<path d="M153.615 281.842H153.479C153.313 281.803 153.169 281.701 153.079 281.557C152.988 281.413 152.958 281.239 152.995 281.073C155.029 272.282 152.995 266.628 152.995 266.566C152.938 266.402 152.948 266.221 153.023 266.064C153.099 265.907 153.234 265.787 153.398 265.729C153.563 265.672 153.743 265.682 153.9 265.758C154.057 265.833 154.177 265.968 154.235 266.132C154.322 266.368 156.38 272.183 154.235 281.358C154.199 281.496 154.119 281.618 154.007 281.706C153.895 281.793 153.757 281.841 153.615 281.842Z" fill="white"/>
<path d="M157.806 288.327C157.702 288.327 157.6 288.302 157.509 288.252C152.549 285.562 141.762 287.483 141.65 287.496C141.566 287.517 141.479 287.522 141.394 287.508C141.308 287.495 141.227 287.464 141.154 287.417C141.081 287.371 141.018 287.31 140.969 287.239C140.921 287.167 140.887 287.086 140.871 287.001C140.855 286.917 140.857 286.829 140.875 286.745C140.894 286.66 140.931 286.581 140.981 286.511C141.032 286.441 141.097 286.382 141.172 286.339C141.246 286.295 141.329 286.267 141.415 286.256C141.873 286.169 152.747 284.235 158.116 287.136C158.261 287.194 158.38 287.302 158.452 287.441C158.523 287.58 158.541 287.74 158.503 287.892C158.466 288.043 158.374 288.176 158.246 288.265C158.118 288.354 157.961 288.394 157.806 288.376V288.327Z" fill="white"/>
<path d="M269.422 61.1024C264.673 56.6387 256.081 54.9029 245.294 61.5115C234.506 68.1202 225.976 89.2605 223.298 104.214C220.62 119.167 218.933 138.695 224.29 146.978C229.646 155.26 249.088 164.039 249.088 164.039L251.443 155.893L269.422 61.1024Z" fill="#00A3A2"/>
<path opacity="0.4" d="M269.422 61.1024C264.673 56.6387 256.081 54.9029 245.294 61.5115C234.506 68.1202 225.976 89.2605 223.298 104.214C220.62 119.167 218.933 138.695 224.29 146.978C229.646 155.26 249.088 164.039 249.088 164.039L251.443 155.893L269.422 61.1024Z" fill="white"/>
<path d="M229.621 144.498C238.04 154.578 251.493 155.942 251.493 155.942L303.383 125.9L282.602 113.91L229.621 144.498Z" fill="#00A3A2"/>
<path opacity="0.2" d="M229.621 144.498C238.04 154.578 251.493 155.942 251.493 155.942L303.383 125.9L282.602 113.91L229.621 144.498Z" fill="black"/>
<path d="M229.621 144.498C226.212 140.456 225.517 130.053 227.365 113.972C229.373 96.3158 235.908 69.0008 251.481 59.9991C269.744 49.4599 288.293 75.6466 282.639 113.972L229.621 144.498Z" fill="#00A3A2"/>
<path d="M351.181 229.952C360.765 240.813 367.783 242.971 370.35 245.29C372.916 247.608 371.9 252.617 366.171 254.217C360.443 255.816 354.008 254.874 349.978 251.415C345.949 247.955 342.96 243.231 338.918 240.776C334.876 238.321 332.868 237.739 332.049 234.577C331.231 231.415 333.413 221.558 333.413 221.558L351.181 229.952Z" fill="#263238"/>
<path d="M345.688 212.693C345.18 216.933 344.56 220.665 347.784 225.488C348.825 227.04 349.96 228.526 351.181 229.94C356.785 236.4 361.336 241.434 362.142 242.339C362.948 243.244 358.844 246.53 353.76 244.819C348.677 243.107 343.903 236.139 340.357 232.01C338.782 230.163 337.245 228.489 336.03 227.2C334.395 225.48 333.447 223.222 333.364 220.851L333.128 214.156L345.688 212.693Z" fill="#FFC1C0"/>
<path d="M322.081 247.72C331.665 258.594 338.671 260.739 341.25 263.058C343.829 265.376 342.799 270.398 337.071 271.997C331.343 273.597 324.908 272.654 320.866 269.183C316.823 265.711 313.86 261.012 309.818 258.557C305.776 256.102 303.755 255.519 302.949 252.357C302.143 249.195 304.313 239.338 304.313 239.338L322.081 247.72Z" fill="#263238"/>
<path d="M316.575 230.473C316.079 234.725 315.447 238.445 318.683 243.268C319.722 244.822 320.856 246.308 322.08 247.72C327.685 254.192 332.223 259.226 333.029 260.119C333.835 261.011 329.743 264.31 324.647 262.598C319.551 260.887 314.79 253.919 311.256 249.803C309.681 247.943 308.144 246.281 306.929 244.992C305.297 243.271 304.349 241.014 304.263 238.644L304.015 231.936L316.575 230.473Z" fill="#FFC1C0"/>
<path d="M277.816 1.40472e-05H285.181C288.058 -0.00324412 290.907 0.560312 293.565 1.65849C296.224 2.75666 298.64 4.36794 300.676 6.40024C302.712 8.43255 304.327 10.846 305.43 13.5029C306.533 16.1597 307.101 19.0077 307.103 21.8843V76.8863H255.919V21.8843C255.923 16.0791 258.231 10.5128 262.337 6.40901C266.443 2.30528 272.011 1.31165e-05 277.816 1.40472e-05Z" fill="#263238"/>
<path d="M310.178 63.9047C301.61 54.903 297.233 53.9855 292.025 53.9855L301.945 83.1231C301.945 83.1231 318.262 93.9103 327.809 99.8618L333.872 86.4957C333.872 86.4957 318.745 72.8692 310.178 63.9047Z" fill="#FFC1C0"/>
<path d="M252.274 129.619C249.088 136.488 244.983 143.791 249.137 150.859C253.291 157.926 287.029 150.859 287.029 150.859V129.619H252.274Z" fill="#263238"/>
<path d="M288.777 53.9853C292.497 53.6753 296.712 53.7869 301.176 61.3007C305.64 68.8145 308.144 73.0302 306.731 83.9661C305.317 94.902 300.035 103.333 299.651 107.425C299.266 111.517 300.246 131.182 300.246 131.182C300.246 131.182 293.724 140.493 277.506 140.927C272.725 141.032 267.98 140.072 263.616 138.116C259.252 136.16 255.378 133.258 252.274 129.619L264.673 107.375L261.499 62.1686L273.613 54.9152L288.777 53.9853Z" fill="#00A3A2"/>
<path d="M288.777 53.9853C292.497 53.6753 296.712 53.7869 301.176 61.3007C305.64 68.8145 308.144 73.0302 306.731 83.9661C305.317 94.902 300.035 103.333 299.651 107.425C299.266 111.517 300.246 131.182 300.246 131.182C300.246 131.182 293.724 140.493 277.506 140.927C272.725 141.032 267.98 140.072 263.616 138.116C259.252 136.16 255.378 133.258 252.274 129.619L264.673 107.375L261.499 62.1686L273.613 54.9152L288.777 53.9853Z" fill="#E0E0E0"/>
<path d="M273.625 69.9801C272.45 69.9801 271.287 69.7485 270.201 69.2984C269.116 68.8484 268.13 68.1888 267.3 67.3574C266.469 66.5259 265.811 65.5389 265.362 64.4529C264.914 63.3669 264.684 62.203 264.686 61.028V34.9901H273.625V69.9801Z" fill="#263238"/>
<path d="M298.671 10.3406C301.362 11.9401 304.71 18.7348 304.375 32.9688C304.102 45.0455 300.184 48.0212 298.175 48.8892C296.167 49.7571 292.422 49.2239 288.727 48.604V55.8574C288.727 55.8574 293.823 61.7717 293.501 65.0823C293.178 68.3928 286.148 69.1987 281.387 65.9502C278.299 63.7258 275.647 60.9518 273.563 57.7669V40.247C273.563 40.247 271.083 43.57 267.017 40.867C262.95 38.164 262.788 31.4809 265.157 29.0879C267.525 26.6949 272.596 27.4389 273.563 30.7618C273.563 30.7618 279.44 30.9726 287.202 26.6825C290.266 25.0547 292.902 22.7259 294.895 19.886C296.888 17.0461 298.182 13.7755 298.671 10.3406Z" fill="#FFC1C0"/>
<path d="M290.897 29.9437C290.915 30.3449 290.773 30.7368 290.502 31.0333C290.231 31.3298 289.854 31.5065 289.453 31.5246C289.051 31.5427 288.659 31.4006 288.363 31.1297C288.066 30.8588 287.89 30.4813 287.872 30.0801C287.863 29.8814 287.893 29.683 287.961 29.496C288.028 29.3091 288.132 29.1373 288.266 28.9905C288.401 28.8437 288.562 28.7248 288.742 28.6405C288.923 28.5562 289.117 28.5082 289.316 28.4992C289.515 28.4903 289.713 28.5205 289.9 28.5883C290.087 28.656 290.259 28.7599 290.406 28.894C290.553 29.0282 290.671 29.1899 290.756 29.37C290.84 29.5501 290.888 29.7451 290.897 29.9437Z" fill="#263238"/>
<path d="M288.157 25.2942L285.008 27.2408C284.752 26.8095 284.673 26.2955 284.789 25.8074C284.904 25.3193 285.205 24.8952 285.628 24.6247C285.837 24.4988 286.069 24.4162 286.31 24.3818C286.552 24.3474 286.798 24.3618 287.034 24.4243C287.27 24.4867 287.491 24.5959 287.684 24.7453C287.877 24.8948 288.038 25.0814 288.157 25.2942Z" fill="#263238"/>
<path d="M291.306 40.173L294.827 41.3013C294.761 41.5349 294.648 41.7528 294.496 41.9422C294.344 42.1316 294.155 42.2886 293.942 42.4041C293.728 42.5197 293.493 42.5913 293.251 42.6148C293.01 42.6384 292.766 42.6133 292.534 42.5412C292.066 42.3769 291.679 42.0404 291.451 41.6004C291.222 41.1603 291.171 40.6498 291.306 40.173Z" fill="#FB9696"/>
<path d="M303.383 25.2814L300.308 23.1488C300.436 22.9406 300.605 22.761 300.805 22.6209C301.006 22.4809 301.233 22.3835 301.472 22.3346C301.711 22.2858 301.958 22.2867 302.197 22.3371C302.437 22.3876 302.663 22.4866 302.862 22.628C303.271 22.9206 303.552 23.3582 303.649 23.8514C303.746 24.3446 303.651 24.8561 303.383 25.2814Z" fill="#263238"/>
<path d="M302.639 28.8403C302.643 29.1397 302.56 29.4338 302.398 29.6859C302.237 29.938 302.004 30.137 301.731 30.2581C301.457 30.3792 301.153 30.4169 300.858 30.3667C300.563 30.3165 300.289 30.1804 300.071 29.9756C299.852 29.7707 299.699 29.5061 299.63 29.2147C299.561 28.9234 299.579 28.6181 299.683 28.3371C299.786 28.056 299.97 27.8116 300.211 27.6343C300.452 27.457 300.74 27.3546 301.039 27.34C301.243 27.3334 301.446 27.3669 301.636 27.4388C301.827 27.5106 302.002 27.6193 302.15 27.7586C302.299 27.898 302.418 28.0652 302.502 28.2508C302.586 28.4364 302.632 28.6367 302.639 28.8403Z" fill="#263238"/>
<path d="M295.472 27.9722L295.72 37.1102L300.531 35.6224L295.472 27.9722Z" fill="#FB9696"/>
<path d="M288.777 48.6041C285.714 48.257 279.564 46.3971 278.2 44.3265C278.463 45.6491 279.2 46.8306 280.271 47.6494C282.28 49.5712 288.777 50.9599 288.777 50.9599V48.6041Z" fill="#FB9696"/>
<path d="M256.676 254.825L158.017 197.863L365.725 77.9402L464.384 134.901L256.676 254.825Z" fill="#B08C6B"/>
<path d="M158.017 197.863V311.785L163.212 314.786V236.833L251.493 287.793V365.746L256.676 368.747V254.824L158.017 197.863Z" fill="#98785B"/>
<path opacity="0.3" d="M158.017 197.863V311.785L163.212 314.786V236.833L251.493 287.793V365.746L256.676 368.747V254.824L158.017 197.863Z" fill="black"/>
<path d="M163.212 314.786L168.407 311.786V239.834L163.212 236.834V314.786Z" fill="#98785B"/>
<path opacity="0.5" d="M163.212 314.786L168.407 311.786V239.834L163.212 236.834V314.786Z" fill="black"/>
<path d="M256.676 368.747L261.871 365.746V287.794L459.189 173.871V251.824L464.384 248.824V134.901L256.676 254.825V368.747Z" fill="#98785B"/>
<path opacity="0.1" d="M256.676 368.747L261.871 365.746V287.794L459.189 173.871V251.824L464.384 248.824V134.901L256.676 254.825V368.747Z" fill="black"/>
<path d="M261.871 281.805V257.825L324.189 221.843V245.823L261.871 281.805Z" fill="#98785B"/>
<path opacity="0.3" d="M261.871 281.805V257.825L324.189 221.843V245.823L261.871 281.805Z" fill="black"/>
<path d="M329.371 242.835V218.842L391.689 182.873V206.853L329.371 242.835Z" fill="#98785B"/>
<path opacity="0.3" d="M329.371 242.835V218.842L391.689 182.873V206.853L329.371 242.835Z" fill="black"/>
<path d="M396.884 203.852V179.873L459.189 143.891V167.883L396.884 203.852Z" fill="#98785B"/>
<path opacity="0.3" d="M396.884 203.852V179.873L459.189 143.891V167.883L396.884 203.852Z" fill="black"/>
<path d="M303.383 233.833V235.755C303.383 236.809 300.903 239.102 297.841 240.863L288.145 246.467C285.082 248.228 282.602 248.811 282.602 247.707V245.798L303.383 233.833Z" fill="#263238"/>
<path d="M370.92 194.863V196.785C370.92 197.839 368.44 200.133 365.378 201.893L355.682 207.498C352.632 209.258 350.152 209.829 350.152 208.738V206.816L370.92 194.863Z" fill="#263238"/>
<path d="M438.421 155.893V157.802C438.421 158.869 435.941 161.15 432.891 162.923L423.182 168.515C420.132 170.288 417.652 170.858 417.652 169.755V167.833L438.421 155.893Z" fill="#263238"/>
<path d="M459.189 251.824L454.006 248.823V176.872L459.189 173.871V251.824Z" fill="#98785B"/>
<path opacity="0.3" d="M459.189 251.824L454.006 248.823V176.872L459.189 173.871V251.824Z" fill="black"/>
<path d="M313.798 142.613V142.179C313.82 141.796 313.932 141.422 314.123 141.088C314.315 140.755 314.581 140.47 314.902 140.258L380.257 102.565C380.601 102.392 380.981 102.302 381.367 102.302C381.752 102.302 382.132 102.392 382.476 102.565L395.842 110.277C396.163 110.49 396.429 110.774 396.621 111.108C396.812 111.441 396.924 111.815 396.946 112.199V112.645C396.92 113.028 396.806 113.4 396.613 113.731C396.419 114.062 396.151 114.344 395.83 114.554L330.549 152.247C330.205 152.42 329.825 152.51 329.439 152.51C329.054 152.51 328.674 152.42 328.33 152.247L314.902 144.498C314.586 144.289 314.323 144.01 314.131 143.684C313.94 143.357 313.826 142.991 313.798 142.613Z" fill="#263238"/>
<path d="M314.902 141.535L328.268 149.259C328.612 149.432 328.992 149.522 329.377 149.522C329.763 149.522 330.143 149.432 330.487 149.259L395.768 111.566C395.887 111.512 395.987 111.425 396.058 111.315C396.128 111.205 396.166 111.077 396.166 110.947C396.166 110.816 396.128 110.688 396.058 110.578C395.987 110.468 395.887 110.381 395.768 110.327L382.402 102.614C382.057 102.442 381.677 102.352 381.292 102.352C380.907 102.352 380.527 102.442 380.182 102.614L314.889 140.307C314.294 140.617 314.294 141.188 314.902 141.535Z" fill="#00A3A2"/>
<path opacity="0.9" d="M314.902 141.535L328.268 149.259C328.612 149.432 328.992 149.522 329.377 149.522C329.763 149.522 330.143 149.432 330.487 149.259L395.768 111.566C395.887 111.512 395.987 111.425 396.058 111.315C396.128 111.205 396.166 111.077 396.166 110.947C396.166 110.816 396.128 110.688 396.058 110.578C395.987 110.468 395.887 110.381 395.768 110.327L382.402 102.614C382.057 102.442 381.677 102.352 381.292 102.352C380.907 102.352 380.527 102.442 380.182 102.614L314.889 140.307C314.294 140.617 314.294 141.188 314.902 141.535Z" fill="white"/>
<path d="M231.828 178.508L271.146 201.223C271.49 201.396 271.87 201.485 272.255 201.485C272.64 201.485 273.02 201.396 273.365 201.223L302.304 184.509C302.427 184.459 302.533 184.373 302.607 184.263C302.681 184.153 302.721 184.023 302.721 183.89C302.721 183.757 302.681 183.626 302.607 183.516C302.533 183.406 302.427 183.32 302.304 183.27L262.975 160.567C262.634 160.39 262.255 160.297 261.871 160.297C261.487 160.297 261.108 160.39 260.768 160.567L231.828 177.231C231.208 177.591 231.208 178.161 231.828 178.508Z" fill="#00A3A2"/>
<path opacity="0.8" d="M231.828 178.508L271.146 201.223C271.49 201.396 271.87 201.485 272.255 201.485C272.64 201.485 273.02 201.396 273.365 201.223L302.304 184.509C302.427 184.459 302.533 184.373 302.607 184.263C302.681 184.153 302.721 184.023 302.721 183.89C302.721 183.757 302.681 183.626 302.607 183.516C302.533 183.406 302.427 183.32 302.304 183.27L262.975 160.567C262.634 160.39 262.255 160.297 261.871 160.297C261.487 160.297 261.108 160.39 260.768 160.567L231.828 177.231C231.208 177.591 231.208 178.161 231.828 178.508Z" fill="#055E54"/>
<path d="M260.768 160.53L233.279 176.388L271.146 198.26C271.49 198.433 271.87 198.522 272.255 198.522C272.641 198.522 273.021 198.433 273.365 198.26L300.903 182.39L263.024 160.53C262.677 160.344 262.29 160.247 261.896 160.247C261.502 160.247 261.115 160.344 260.768 160.53Z" fill="#00A3A2"/>
<path opacity="0.7" d="M260.768 160.53L233.279 176.388L271.146 198.26C271.49 198.433 271.87 198.522 272.255 198.522C272.641 198.522 273.021 198.433 273.365 198.26L300.903 182.39L263.024 160.53C262.677 160.344 262.29 160.247 261.896 160.247C261.502 160.247 261.115 160.344 260.768 160.53Z" fill="white"/>
<path d="M231.828 174.516L271.145 197.219C271.49 197.391 271.87 197.481 272.255 197.481C272.64 197.481 273.02 197.391 273.365 197.219L302.304 180.517C302.423 180.463 302.523 180.375 302.594 180.265C302.664 180.156 302.702 180.028 302.702 179.897C302.702 179.767 302.664 179.639 302.594 179.529C302.523 179.419 302.423 179.332 302.304 179.277L262.974 156.525C262.631 156.355 262.254 156.266 261.871 156.266C261.488 156.266 261.11 156.355 260.767 156.525L231.828 173.239C231.692 173.282 231.574 173.367 231.489 173.482C231.405 173.596 231.36 173.735 231.36 173.877C231.36 174.02 231.405 174.158 231.489 174.273C231.574 174.388 231.692 174.473 231.828 174.516Z" fill="#00A3A2"/>
<path opacity="0.9" d="M231.828 174.516L271.145 197.219C271.49 197.391 271.87 197.481 272.255 197.481C272.64 197.481 273.02 197.391 273.365 197.219L302.304 180.517C302.423 180.463 302.523 180.375 302.594 180.265C302.664 180.156 302.702 180.028 302.702 179.897C302.702 179.767 302.664 179.639 302.594 179.529C302.523 179.419 302.423 179.332 302.304 179.277L262.974 156.525C262.631 156.355 262.254 156.266 261.871 156.266C261.488 156.266 261.11 156.355 260.767 156.525L231.828 173.239C231.692 173.282 231.574 173.367 231.489 173.482C231.405 173.596 231.36 173.735 231.36 173.877C231.36 174.02 231.405 174.158 231.489 174.273C231.574 174.388 231.692 174.473 231.828 174.516Z" fill="#089BA5"/>
<path d="M253.626 150.859C252.324 154.405 254.32 157.269 258.102 157.244C260.089 157.14 262.007 156.48 263.636 155.337C265.265 154.195 266.54 152.617 267.314 150.784C268.629 147.238 266.62 144.374 262.838 144.399C260.851 144.502 258.933 145.163 257.304 146.306C255.675 147.448 254.4 149.026 253.626 150.859Z" fill="#00A3A2"/>
<path opacity="0.1" d="M253.626 150.859C252.324 154.405 254.32 157.269 258.102 157.244C260.089 157.14 262.007 156.48 263.636 155.337C265.265 154.195 266.54 152.617 267.314 150.784C268.629 147.238 266.62 144.374 262.838 144.399C260.851 144.502 258.933 145.163 257.304 146.306C255.675 147.448 254.4 149.026 253.626 150.859Z" fill="black"/>
<path d="M256.762 167.684C253.799 175.706 258.337 182.191 266.905 182.142C275.473 182.092 284.784 175.496 287.76 167.511C290.736 159.526 286.173 153.016 277.618 153.054C269.062 153.091 259.713 159.65 256.762 167.684Z" fill="#455A64"/>
<path d="M263.706 144.498L258.573 148.081L253.44 151.664C251.741 158.397 251.233 168.912 257.544 177.963L287.078 157.331C280.705 148.218 270.563 145.167 263.706 144.498Z" fill="#455A64"/>
<path d="M266.669 144.981C266.669 144.981 267.587 153.103 261.499 156.785C261.499 156.785 267.227 155.211 268.938 151.181C270.649 147.151 266.669 144.981 266.669 144.981Z" fill="#263238"/>
<path d="M267.426 145.899C265.139 142.721 262.062 140.195 258.499 138.571L254.382 141.497L253.923 141.82L249.794 144.746C250.153 148.63 251.511 152.355 253.737 155.558C254.25 156.21 254.915 156.727 255.673 157.065C256.432 157.402 257.261 157.548 258.089 157.492C260.182 157.378 262.2 156.676 263.913 155.468C265.626 154.26 266.963 152.593 267.773 150.66C268.107 149.893 268.247 149.055 268.183 148.221C268.118 147.386 267.849 146.581 267.401 145.874L267.426 145.899Z" fill="#37474F"/>
<path d="M249.931 142.539C249.683 143.038 249.574 143.595 249.617 144.151C249.66 144.706 249.853 145.24 250.174 145.695C250.496 146.15 250.935 146.51 251.444 146.736C251.953 146.962 252.515 147.045 253.068 146.978C254.451 146.905 255.785 146.442 256.917 145.644C258.049 144.845 258.933 143.743 259.466 142.465C259.713 141.967 259.821 141.411 259.778 140.857C259.736 140.303 259.545 139.77 259.225 139.315C258.905 138.861 258.468 138.501 257.96 138.274C257.453 138.047 256.893 137.961 256.341 138.026C254.958 138.107 253.626 138.572 252.493 139.37C251.361 140.167 250.473 141.265 249.931 142.539Z" fill="#455A64"/>
<path d="M258.387 152.619C257.871 151.877 257.189 151.266 256.394 150.835C255.6 150.405 254.715 150.166 253.812 150.14C253.468 150.11 253.123 150.18 252.819 150.343C252.515 150.506 252.266 150.754 252.101 151.057L239.925 180.455C239.835 180.74 239.813 181.042 239.86 181.337C239.908 181.632 240.023 181.911 240.198 182.154C240.714 182.899 241.398 183.511 242.195 183.942C242.992 184.373 243.879 184.61 244.785 184.634C245.129 184.665 245.474 184.595 245.779 184.432C246.083 184.269 246.332 184.02 246.496 183.716L258.647 154.417C258.762 154.12 258.799 153.799 258.753 153.484C258.708 153.169 258.582 152.871 258.387 152.619Z" fill="#455A64"/>
<path d="M272.881 224.621C272.881 224.204 272.836 223.788 272.745 223.381C271.701 218.625 268.897 214.439 264.896 211.664H248.468C244.463 214.438 241.655 218.623 240.607 223.381C240.52 223.788 240.478 224.204 240.483 224.621C240.478 224.695 240.478 224.769 240.483 224.844C240.632 227.113 242.194 229.357 245.194 231.043C251.53 234.763 261.784 234.763 268.12 231.043C271.121 229.307 272.683 227.063 272.832 224.844C272.853 224.77 272.869 224.696 272.881 224.621Z" fill="#455A64"/>
<path d="M256.676 222.215C262.757 222.215 267.686 219.367 267.686 215.854C267.686 212.341 262.757 209.494 256.676 209.494C250.595 209.494 245.666 212.341 245.666 215.854C245.666 219.367 250.595 222.215 256.676 222.215Z" fill="#37474F"/>
<path d="M254.072 214.342C253.755 214.447 253.48 214.649 253.284 214.919C253.089 215.189 252.984 215.515 252.984 215.848C252.984 216.182 253.089 216.507 253.284 216.777C253.48 217.048 253.755 217.25 254.072 217.355C254.881 217.764 255.775 217.978 256.682 217.978C257.589 217.978 258.483 217.764 259.292 217.355C259.608 217.25 259.884 217.048 260.079 216.777C260.275 216.507 260.38 216.182 260.38 215.848C260.38 215.515 260.275 215.189 260.079 214.919C259.884 214.649 259.608 214.447 259.292 214.342C258.483 213.932 257.589 213.719 256.682 213.719C255.775 213.719 254.881 213.932 254.072 214.342Z" fill="#455A64"/>
<path d="M238.995 185.601C238.678 185.705 238.403 185.908 238.207 186.178C238.012 186.448 237.907 186.773 237.907 187.107C237.907 187.441 238.012 187.766 238.207 188.036C238.403 188.307 238.678 188.509 238.995 188.614C239.804 189.023 240.698 189.237 241.605 189.237C242.512 189.237 243.406 189.023 244.215 188.614C244.531 188.509 244.807 188.307 245.002 188.036C245.197 187.766 245.302 187.441 245.302 187.107C245.302 186.773 245.197 186.448 245.002 186.178C244.807 185.908 244.531 185.705 244.215 185.601C243.406 185.191 242.512 184.977 241.605 184.977C240.698 184.977 239.804 185.191 238.995 185.601Z" fill="#00A3A2"/>
<path opacity="0.3" d="M238.995 185.601C238.678 185.705 238.403 185.908 238.207 186.178C238.012 186.448 237.907 186.773 237.907 187.107C237.907 187.441 238.012 187.766 238.207 188.036C238.403 188.307 238.678 188.509 238.995 188.614C239.804 189.023 240.698 189.237 241.605 189.237C242.512 189.237 243.406 189.023 244.215 188.614C244.531 188.509 244.807 188.307 245.002 188.036C245.197 187.766 245.302 187.441 245.302 187.107C245.302 186.773 245.197 186.448 245.002 186.178C244.807 185.908 244.531 185.705 244.215 185.601C243.406 185.191 242.512 184.977 241.605 184.977C240.698 184.977 239.804 185.191 238.995 185.601Z" fill="black"/>
<path d="M245.157 186.506L260.222 215.247L253.142 216.462L238.052 187.684L245.157 186.506Z" fill="#455A64"/>
<path d="M239.838 178.137C239.372 178.022 238.882 178.045 238.428 178.204C237.975 178.362 237.577 178.649 237.284 179.029C236.433 179.987 235.82 181.131 235.495 182.37C235.17 183.609 235.141 184.907 235.412 186.159C235.487 186.57 235.657 186.958 235.909 187.292C236.161 187.626 236.487 187.896 236.862 188.081L242.491 190.188L245.294 180.145L239.838 178.137Z" fill="#37474F"/>
<path d="M242.839 181.112C241.985 182.07 241.369 183.217 241.042 184.458C240.714 185.698 240.684 186.999 240.954 188.254C241.574 190.523 243.434 191.007 245.07 189.333C245.924 188.377 246.54 187.233 246.867 185.994C247.195 184.755 247.225 183.456 246.955 182.203C246.348 179.934 244.488 179.451 242.839 181.112Z" fill="#263238"/>
<path d="M214.531 206.022C219.764 200.691 222.826 187.362 217.73 183.134H191.792C186.696 187.362 189.758 200.678 194.991 206.022L195.127 206.171L195.313 206.344C195.461 206.494 195.619 206.635 195.784 206.766L195.908 206.865L196.305 207.163C196.519 207.32 196.743 207.465 196.974 207.597C199.39 208.819 202.06 209.456 204.767 209.456C207.475 209.456 210.144 208.819 212.56 207.597C212.783 207.473 213.006 207.324 213.242 207.163L213.602 206.878L213.763 206.766L214.209 206.357L214.42 206.146L214.531 206.022Z" fill="#98785B"/>
<path opacity="0.7" d="M214.531 206.022C219.764 200.691 222.826 187.362 217.73 183.134H191.792C186.696 187.362 189.758 200.678 194.991 206.022L195.127 206.171L195.313 206.344C195.461 206.494 195.619 206.635 195.784 206.766L195.908 206.865L196.305 207.163C196.519 207.32 196.743 207.465 196.974 207.597C199.39 208.819 202.06 209.456 204.767 209.456C207.475 209.456 210.144 208.819 212.56 207.597C212.783 207.473 213.006 207.324 213.242 207.163L213.602 206.878L213.763 206.766L214.209 206.357L214.42 206.146L214.531 206.022Z" fill="#302215"/>
<path d="M204.749 196.375C213.124 196.375 219.913 192.456 219.913 187.622C219.913 182.787 213.124 178.868 204.749 178.868C196.374 178.868 189.585 182.787 189.585 187.622C189.585 192.456 196.374 196.375 204.749 196.375Z" fill="#00A3A2"/>
<path opacity="0.9" d="M204.749 196.375C213.124 196.375 219.913 192.456 219.913 187.622C219.913 182.787 213.124 178.868 204.749 178.868C196.374 178.868 189.585 182.787 189.585 187.622C189.585 192.456 196.374 196.375 204.749 196.375Z" fill="#7A522B"/>
<path d="M198.227 183.852C194.631 185.935 194.631 189.308 198.227 191.391C200.251 192.412 202.487 192.944 204.755 192.944C207.022 192.944 209.258 192.412 211.283 191.391C214.879 189.308 214.879 185.935 211.283 183.852C209.26 182.825 207.024 182.29 204.755 182.29C202.486 182.29 200.25 182.825 198.227 183.852Z" fill="#00A3A2"/>
<path opacity="0.7" d="M198.227 183.852C194.631 185.935 194.631 189.308 198.227 191.391C200.251 192.412 202.487 192.944 204.755 192.944C207.022 192.944 209.258 192.412 211.283 191.391C214.879 189.308 214.879 185.935 211.283 183.852C209.26 182.825 207.024 182.29 204.755 182.29C202.486 182.29 200.25 182.825 198.227 183.852Z" fill="white"/>
<path d="M211.283 187.423C209.259 186.402 207.023 185.87 204.755 185.87C202.488 185.87 200.252 186.402 198.227 187.423C197.36 187.903 196.62 188.583 196.07 189.407C196.62 190.231 197.36 190.912 198.227 191.391C200.252 192.412 202.488 192.944 204.755 192.944C207.023 192.944 209.259 192.412 211.283 191.391C212.151 190.912 212.89 190.231 213.441 189.407C212.89 188.583 212.151 187.903 211.283 187.423Z" fill="#00A3A2"/>
<path opacity="0.3" d="M211.283 187.423C209.259 186.402 207.023 185.87 204.755 185.87C202.488 185.87 200.252 186.402 198.227 187.423C197.36 187.903 196.62 188.583 196.07 189.407C196.62 190.231 197.36 190.912 198.227 191.391C200.252 192.412 202.488 192.944 204.755 192.944C207.023 192.944 209.259 192.412 211.283 191.391C212.151 190.912 212.89 190.231 213.441 189.407C212.89 188.583 212.151 187.903 211.283 187.423Z" fill="black"/>
<path d="M207.105 190.226C210.862 187.879 213.699 184.311 215.139 180.121C217.532 173.128 216.119 164.672 213.974 161.175C211.072 156.439 204.054 156.972 206.125 164.895C208.196 172.818 209.485 181.385 206.199 187.114L207.105 190.226Z" fill="#00A355"/>
<path d="M207.353 188.787C207.276 188.787 207.201 188.761 207.142 188.713C207.111 188.683 207.087 188.647 207.071 188.608C207.054 188.568 207.046 188.526 207.046 188.484C207.046 188.441 207.054 188.399 207.071 188.359C207.087 188.32 207.111 188.284 207.142 188.254C209.238 185.936 210.842 183.217 211.857 180.261C212.871 177.305 213.275 174.173 213.044 171.057C212.684 165.316 210.564 161.138 209.758 160.505C209.7 160.443 209.667 160.361 209.667 160.276C209.667 160.191 209.7 160.108 209.758 160.046C209.818 159.989 209.898 159.957 209.981 159.957C210.064 159.957 210.144 159.989 210.204 160.046C211.271 160.964 213.354 165.428 213.701 171.032C213.94 174.236 213.527 177.456 212.484 180.495C211.442 183.534 209.793 186.33 207.638 188.713C207.601 188.749 207.555 188.775 207.505 188.788C207.455 188.801 207.402 188.801 207.353 188.787Z" fill="white"/>
<path d="M201.054 190.226C200.853 189.534 200.414 188.937 199.814 188.539C199.073 188.126 198.292 187.79 197.483 187.535C196.082 187.027 194.296 186.295 194.11 184.609C194.067 184.005 194.142 183.398 194.334 182.823C194.679 182.044 194.762 181.174 194.569 180.344C194.259 179.6 193.466 179.203 192.784 178.757C192.032 178.312 191.391 177.701 190.911 176.971C190.507 176.322 190.312 175.565 190.353 174.801C190.49 173.239 191.99 172.21 192.04 170.66C192.102 168.391 186.795 165.316 189.622 163.221C193.242 160.48 198.909 163.655 200.533 165.986C202.157 168.317 202.157 169.358 205.121 171.33C207.601 172.966 210.477 173.301 210.477 176.525C210.477 179.749 206.348 179.897 209.597 183.555C211.556 185.75 208.357 187.647 207.117 190.25C205.096 190.226 203.05 190.126 201.054 190.226Z" fill="#00A355"/>
<path d="M204.327 190.511C204.285 190.509 204.243 190.499 204.205 190.482C204.166 190.464 204.132 190.439 204.103 190.408C204.074 190.377 204.052 190.34 204.037 190.301C204.022 190.261 204.016 190.219 204.017 190.176C204.736 171.441 195.202 164.87 193.292 164.349C193.214 164.323 193.149 164.267 193.111 164.194C193.072 164.121 193.063 164.036 193.085 163.957C193.108 163.877 193.159 163.81 193.23 163.767C193.301 163.725 193.385 163.711 193.466 163.729C196.69 164.609 205.332 172.52 204.625 190.201C204.622 190.28 204.59 190.356 204.535 190.413C204.48 190.47 204.406 190.505 204.327 190.511Z" fill="white"/>
<path d="M202.814 177.194C202.738 177.194 202.663 177.168 202.604 177.12C199.839 174.64 194.433 174.739 194.371 174.739C194.287 174.739 194.207 174.707 194.147 174.649C194.087 174.592 194.052 174.513 194.048 174.429C194.048 174.345 194.08 174.263 194.137 174.201C194.195 174.139 194.274 174.101 194.358 174.095C194.594 174.095 200.074 174.033 203.038 176.574C203.084 176.618 203.117 176.675 203.132 176.737C203.146 176.799 203.142 176.864 203.119 176.924C203.097 176.984 203.057 177.036 203.005 177.073C202.953 177.11 202.891 177.131 202.827 177.132L202.814 177.194Z" fill="white"/>
<path d="M423.108 125.726L427.77 69.1372C427.818 68.2213 427.629 67.3084 427.221 66.4872C426.812 65.666 426.198 64.9643 425.439 64.4504C424.599 64.0441 423.675 63.8413 422.743 63.8586C421.81 63.8758 420.894 64.1125 420.07 64.5496L358.075 100.333C357.255 100.864 356.56 101.565 356.035 102.389C355.511 103.212 355.171 104.139 355.037 105.107L350.375 161.696C350.327 162.612 350.516 163.525 350.924 164.346C351.333 165.167 351.946 165.869 352.706 166.383C353.546 166.789 354.47 166.992 355.402 166.974C356.335 166.957 357.251 166.72 358.075 166.283L420.07 130.5C420.888 129.968 421.583 129.267 422.107 128.443C422.631 127.619 422.973 126.693 423.108 125.726Z" fill="#00A3A2"/>
<path opacity="0.8" d="M423.108 125.726L427.77 69.1372C427.818 68.2213 427.629 67.3084 427.221 66.4872C426.812 65.666 426.198 64.9643 425.439 64.4504C424.599 64.0441 423.675 63.8413 422.743 63.8586C421.81 63.8758 420.894 64.1125 420.07 64.5496L358.075 100.333C357.255 100.864 356.56 101.565 356.035 102.389C355.511 103.212 355.171 104.139 355.037 105.107L350.375 161.696C350.327 162.612 350.516 163.525 350.924 164.346C351.333 165.167 351.946 165.869 352.706 166.383C353.546 166.789 354.47 166.992 355.402 166.974C356.335 166.957 357.251 166.72 358.075 166.283L420.07 130.5C420.888 129.968 421.583 129.267 422.107 128.443C422.631 127.619 422.973 126.693 423.108 125.726Z" fill="white"/>
<path d="M423.108 125.726L427.77 69.1372C427.818 68.2213 427.629 67.3084 427.221 66.4872C426.812 65.666 426.198 64.9643 425.439 64.4504C424.599 64.0441 423.675 63.8413 422.743 63.8586C421.81 63.8758 420.894 64.1125 420.07 64.5496L358.075 100.333C357.252 100.844 356.56 101.54 356.054 102.367L365.688 107.921V161.857L420.033 130.475C420.856 129.951 421.557 129.255 422.088 128.436C422.619 127.616 422.966 126.692 423.108 125.726Z" fill="#00A3A2"/>
<path opacity="0.9" d="M423.108 125.726L427.77 69.1372C427.818 68.2213 427.629 67.3084 427.221 66.4872C426.812 65.666 426.198 64.9643 425.439 64.4504C424.599 64.0441 423.675 63.8413 422.743 63.8586C421.81 63.8758 420.894 64.1125 420.07 64.5496L358.075 100.333C357.252 100.844 356.56 101.54 356.054 102.367L365.688 107.921V161.857L420.033 130.475C420.856 129.951 421.557 129.255 422.088 128.436C422.619 127.616 422.966 126.692 423.108 125.726Z" fill="white"/>
<path d="M355.608 164.696L360.27 108.107C360.405 107.14 360.745 106.213 361.266 105.388C361.788 104.562 362.48 103.858 363.295 103.321L425.29 67.5496C426.827 66.6693 427.943 67.376 427.77 69.1367L423.108 125.726C422.974 126.691 422.635 127.617 422.113 128.441C421.591 129.264 420.899 129.966 420.082 130.499L358.087 166.283C356.575 167.163 355.459 166.457 355.608 164.696Z" fill="#00A3A2"/>
<path opacity="0.7" d="M355.608 164.696L360.27 108.107C360.405 107.14 360.745 106.213 361.266 105.388C361.788 104.562 362.48 103.858 363.295 103.321L425.29 67.5496C426.827 66.6693 427.943 67.376 427.77 69.1367L423.108 125.726C422.974 126.691 422.635 127.617 422.113 128.441C421.591 129.264 420.899 129.966 420.082 130.499L358.087 166.283C356.575 167.163 355.459 166.457 355.608 164.696Z" fill="white"/>
<path d="M387.585 119.291C387.753 117.77 388.245 116.302 389.028 114.987C389.811 113.672 390.866 112.539 392.123 111.665C394.392 110.351 396.028 111.665 395.842 114.542C395.672 116.063 395.179 117.53 394.397 118.845C393.614 120.16 392.56 121.293 391.304 122.167C388.936 123.42 387.349 122.18 387.585 119.291Z" fill="#00A3A2"/>
<path opacity="0.4" d="M387.585 119.291C387.753 117.77 388.245 116.302 389.028 114.987C389.811 113.672 390.866 112.539 392.123 111.665C394.392 110.351 396.028 111.665 395.842 114.542C395.672 116.063 395.179 117.53 394.397 118.845C393.614 120.16 392.56 121.293 391.304 122.167C388.936 123.42 387.349 122.18 387.585 119.291Z" fill="white"/>
<path d="M386.493 137.902L407.262 125.912L404.67 124.411L383.902 136.401L386.493 137.902Z" fill="#00A3A2"/>
<path opacity="0.9" d="M386.493 137.902L407.262 125.912L404.67 124.411L383.902 136.401L386.493 137.902Z" fill="white"/>
<path d="M411.341 153.524L392.743 164.237C392.363 164.442 391.933 164.536 391.503 164.51C391.153 164.495 390.811 164.406 390.499 164.249L382.328 159.538C382.017 159.323 381.76 159.041 381.575 158.712C381.39 158.384 381.283 158.017 381.261 157.641V157.207C381.261 156.5 381.757 156.202 382.365 156.562L387.324 159.401L388.428 160.046L388.18 158.806L383.89 136.488L386.481 137.988L407.262 125.899L412.222 151.615C412.279 151.984 412.227 152.363 412.07 152.703C411.913 153.042 411.66 153.328 411.341 153.524Z" fill="#00A3A2"/>
<path opacity="0.7" d="M411.341 153.524L392.743 164.237C392.363 164.442 391.933 164.536 391.503 164.51C391.153 164.495 390.811 164.406 390.499 164.249L382.328 159.538C382.017 159.323 381.76 159.041 381.575 158.712C381.39 158.384 381.283 158.017 381.261 157.641V157.207C381.261 156.5 381.757 156.202 382.365 156.562L387.324 159.401L388.428 160.046L388.18 158.806L383.89 136.488L386.481 137.988L407.262 125.899L412.222 151.615C412.279 151.984 412.227 152.363 412.07 152.703C411.913 153.042 411.66 153.328 411.341 153.524Z" fill="white"/>
<path d="M381.646 156.438L387.969 152.78L389.259 161.299L381.646 156.438Z" fill="#00A3A2"/>
<path opacity="0.7" d="M381.646 156.438L387.969 152.78L389.259 161.299L381.646 156.438Z" fill="white"/>
<path d="M386.456 137.902L383.865 136.402L388.155 158.72C388.304 159.402 387.907 159.687 387.299 159.327L382.34 156.488C381.732 156.128 381.236 156.488 381.236 157.133V157.567C381.258 157.943 381.366 158.31 381.55 158.639C381.735 158.967 381.992 159.25 382.303 159.464L390.474 164.175C390.786 164.332 391.128 164.421 391.478 164.436L386.456 137.902Z" fill="#00A3A2"/>
<path opacity="0.8" d="M386.456 137.902L383.865 136.402L388.155 158.72C388.304 159.402 387.907 159.687 387.299 159.327L382.34 156.488C381.732 156.128 381.236 156.488 381.236 157.133V157.567C381.258 157.943 381.366 158.31 381.55 158.639C381.735 158.967 381.992 159.25 382.303 159.464L390.474 164.175C390.786 164.332 391.128 164.421 391.478 164.436L386.456 137.902Z" fill="white"/>
<path d="M319.502 167.882C323.308 167.597 324.536 166.196 325.156 164.51C325.776 162.824 325.999 160.976 324.523 157.071C323.048 153.165 314.604 148.044 305.838 149.916C297.072 151.789 295.857 158.484 296.328 160.282C296.799 162.08 302.069 166.643 308.901 167.424C312.414 167.882 315.961 168.036 319.502 167.882Z" fill="#00A3A2"/>
<path opacity="0.7" d="M319.502 167.882C323.308 167.597 324.536 166.196 325.156 164.51C325.776 162.824 325.999 160.976 324.523 157.071C323.048 153.165 314.604 148.044 305.838 149.916C297.072 151.789 295.857 158.484 296.328 160.282C296.799 162.08 302.069 166.643 308.901 167.424C312.414 167.882 315.961 168.036 319.502 167.882Z" fill="white"/>
<path d="M315.05 155.657C315.554 155.26 316.176 155.044 316.817 155.044C317.458 155.044 318.081 155.26 318.584 155.657C319.744 156.314 320.671 157.315 321.238 158.522C321.622 159.526 321.436 160.419 321.002 160.419C320.568 160.419 320.246 159.501 318.584 158.112C316.923 156.724 314.678 156.178 315.05 155.657Z" fill="#00A3A2"/>
<path opacity="0.9" d="M315.05 155.657C315.554 155.26 316.176 155.044 316.817 155.044C317.458 155.044 318.081 155.26 318.584 155.657C319.744 156.314 320.671 157.315 321.238 158.522C321.622 159.526 321.436 160.419 321.002 160.419C320.568 160.419 320.246 159.501 318.584 158.112C316.923 156.724 314.678 156.178 315.05 155.657Z" fill="#040404"/>
<path d="M261.499 62.1937C257.407 64.9462 252.559 68.2072 253.229 78.9447C253.898 89.6823 261.908 119.304 262.454 122.912C262.999 126.52 284.772 143.99 288.777 147.437C293.377 151.442 295.113 152.285 297.196 154.579C299.279 156.873 301.238 162.725 303.395 165.267C306.78 169.197 314.071 169.284 317.431 168.825C320.791 168.366 318.671 164.287 317.431 161.386C316.191 158.484 312.868 154.529 313.81 153.847C314.455 153.388 317.964 154.008 320.68 156.327C322.775 158.112 323.023 159.861 324.201 160.679C326.172 162.068 326.829 159.613 324.796 155.719C322.763 151.826 319.663 149.036 316.6 148.069C317.952 148.176 319.304 147.873 320.481 147.201C322.167 146.16 322.763 143.804 320.68 144.424C319.44 144.783 318.2 144.424 315.72 144.424C307.933 144.424 305.59 147.251 296.576 138.547C287.562 129.843 275.498 118.002 275.498 118.002C275.498 118.002 271.443 93.3276 269.62 82.4041C268.071 72.9932 267.426 66.8309 261.499 62.1937Z" fill="#FFC1C0"/>
<path d="M333.872 86.4586L349.259 53.874L357.939 57.4573C357.939 57.4573 345.18 96.0679 343.345 100.259C342.266 102.739 338.807 105.751 333.798 103.309C332.707 102.776 330.537 101.499 327.846 99.8248" fill="#FFC1C0"/>
<path d="M354.677 67.1657C355.744 63.9792 359.129 60.5818 359.637 59.2303C360.089 58.1629 360.239 56.9922 360.071 55.8454L356.116 56.2422L354.677 67.1657Z" fill="#FFC1C0"/>
<path d="M346.519 59.5649C347.164 58.0894 347.275 52.9191 346.519 49.9433C345.763 46.9675 347.585 43.2478 347.126 41.1524C346.668 39.0569 348.007 38.4246 349.222 39.1809C349.966 39.6532 350.582 40.3022 351.015 41.0702C351.448 41.8382 351.683 42.7013 351.702 43.5826C351.764 45.7524 351.9 51.27 351.02 53.9606C350.139 56.6511 346.519 59.5649 346.519 59.5649Z" fill="#FFC1C0"/>
<path d="M348.565 54.4938C348.801 55.1633 349.693 56.0932 352.582 55.5973L357.901 57.4571L360.071 57.3331C358.911 58.1537 357.492 58.5233 356.079 58.3727C354.667 58.222 353.357 57.5615 352.396 56.5148C352.396 56.5148 348.491 56.9984 348.565 54.4938Z" fill="#FB9696"/>
<path d="M363.444 52.3113C360.108 54.9151 360.579 58.3 364.51 59.8871C366.689 60.6356 369.013 60.8596 371.295 60.5407C373.576 60.2219 375.751 59.3692 377.641 58.052C380.976 55.4482 380.492 52.0509 376.574 50.4638C374.394 49.72 372.07 49.4997 369.788 49.8206C367.507 50.1416 365.334 50.9948 363.444 52.3113Z" fill="#00A3A2"/>
<path opacity="0.7" d="M363.444 52.3113C360.108 54.9151 360.579 58.3 364.51 59.8871C366.689 60.6356 369.013 60.8596 371.295 60.5407C373.576 60.2219 375.751 59.3692 377.641 58.052C380.976 55.4482 380.492 52.0509 376.574 50.4638C374.394 49.72 372.07 49.4997 369.788 49.8206C367.507 50.1416 365.334 50.9948 363.444 52.3113Z" fill="white"/>
<path d="M379.959 33.3036L367.721 35.0147L355.459 36.7258C355.732 44.6611 358.422 53.5512 361.931 58.0769L379.587 55.5971C381.732 50.2655 381.869 41.0034 379.959 33.3036Z" fill="#00A3A2"/>
<path opacity="0.7" d="M379.959 33.3036L367.721 35.0147L355.459 36.7258C355.732 44.6611 358.422 53.5512 361.931 58.0769L379.587 55.5971C381.732 50.2655 381.869 41.0034 379.959 33.3036Z" fill="white"/>
<path d="M358.608 33.0185C354.12 35.7587 354.591 39.1312 359.662 40.5323C365.558 41.8232 371.722 40.9427 377.021 38.0525C381.509 35.2999 381.038 31.9398 375.967 30.5263C370.069 29.2403 363.906 30.1252 358.608 33.0185Z" fill="#00A3A2"/>
<path opacity="0.9" d="M358.608 33.0185C354.12 35.7587 354.591 39.1312 359.662 40.5323C365.558 41.8232 371.722 40.9427 377.021 38.0525C381.509 35.2999 381.038 31.9398 375.967 30.5263C370.069 29.2403 363.906 30.1252 358.608 33.0185Z" fill="white"/>
<path d="M360.418 34.1471C356.699 36.0442 357.058 38.2388 361.1 39.1067C365.849 39.8257 370.705 39.145 375.074 37.1477C378.732 35.2507 378.434 33.056 374.38 32.1881C369.634 31.4701 364.783 32.1509 360.418 34.1471Z" fill="#00A3A2"/>
<path opacity="0.4" d="M360.418 34.1471C356.699 36.0442 357.058 38.2388 361.1 39.1067C365.849 39.8257 370.705 39.145 375.074 37.1477C378.732 35.2507 378.434 33.056 374.38 32.1881C369.634 31.4701 364.783 32.1509 360.418 34.1471Z" fill="white"/>
<path d="M360.877 37.0483C360.22 37.3709 359.614 37.7887 359.079 38.2882C359.731 38.6219 360.429 38.856 361.15 38.9825C365.899 39.7015 370.755 39.0208 375.124 37.0235C375.784 36.706 376.39 36.2877 376.922 35.7836C376.27 35.4498 375.572 35.2158 374.851 35.0893C370.102 34.3703 365.246 35.051 360.877 37.0483Z" fill="#00A3A2"/>
<path opacity="0.3" d="M360.877 37.0483C360.22 37.3709 359.614 37.7887 359.079 38.2882C359.731 38.6219 360.429 38.856 361.15 38.9825C365.899 39.7015 370.755 39.0208 375.124 37.0235C375.784 36.706 376.39 36.2877 376.922 35.7836C376.27 35.4498 375.572 35.2158 374.851 35.0893C370.102 34.3703 365.246 35.051 360.877 37.0483Z" fill="black"/>
<path d="M358.273 57.7048C357.244 57.8574 356.195 57.8069 355.186 57.556C353.797 57.1841 352.483 55.845 351.181 53.452C350.09 51.4433 348.218 46.9797 349.011 44.5123C350.028 41.3753 353.661 40.9289 356.079 40.6314L356.909 40.5198L357.442 44.3263L356.55 44.4379C355.186 44.5991 352.917 44.8842 352.656 45.6778C352.309 47.2152 354.913 53.204 356.24 53.8611C357.436 54.0272 358.655 53.8284 359.736 53.2908L361.472 56.7129C360.464 57.209 359.385 57.5437 358.273 57.7048Z" fill="#00A3A2"/>
<path opacity="0.7" d="M358.273 57.7048C357.244 57.8574 356.195 57.8069 355.186 57.556C353.797 57.1841 352.483 55.845 351.181 53.452C350.09 51.4433 348.218 46.9797 349.011 44.5123C350.028 41.3753 353.661 40.9289 356.079 40.6314L356.909 40.5198L357.442 44.3263L356.55 44.4379C355.186 44.5991 352.917 44.8842 352.656 45.6778C352.309 47.2152 354.913 53.204 356.24 53.8611C357.436 54.0272 358.655 53.8284 359.736 53.2908L361.472 56.7129C360.464 57.209 359.385 57.5437 358.273 57.7048Z" fill="white"/>
<path d="M353.723 45.6901C351.355 45.6901 344.399 48.4551 344.25 50.9597C344.101 53.4643 348.825 53.2783 348.825 53.2783C348.602 53.6504 348.517 54.0892 348.585 54.5176C348.653 54.9461 348.87 55.337 349.197 55.6217C350.375 56.6385 359.302 53.5387 359.302 53.5387C358.991 52.5156 358.518 51.5488 357.901 50.6745C357.456 50.1092 356.805 49.7435 356.091 49.6578C356.091 49.6578 357.244 45.6901 353.723 45.6901Z" fill="#FFC1C0"/>
<path d="M176.553 167.796L166.163 161.807L176.553 158.807V167.796Z" fill="#5A4634"/>
<g style="mix-blend-mode:multiply" opacity="0.5">
<g style="mix-blend-mode:multiply" opacity="0.5">
<path d="M176.553 158.807V167.796L166.163 161.807" fill="#5A4634"/>
</g>
</g>
<path d="M114.236 194.788V204.336L57.1262 171.367V161.807L114.236 194.788Z" fill="#6A5440"/>
<g style="mix-blend-mode:multiply" opacity="0.5">
<g style="mix-blend-mode:multiply" opacity="0.5">
<path d="M114.236 194.788V204.335L57.1262 171.367V161.807L114.236 194.788Z" fill="#6A5440"/>
</g>
</g>
<path d="M51.9309 86.8552L109.053 119.837V197.777L51.9309 164.808V86.8552Z" fill="#6A5440"/>
<path d="M109.053 119.836L186.931 74.8651V152.805L109.053 197.776V119.836Z" fill="#896C52"/>
<path d="M186.931 74.8654L129.821 41.884L51.9309 86.8552L109.053 119.837L186.931 74.8654Z" fill="#B08B6B"/>
<path d="M114.236 122.837L181.748 83.8544V101.845L114.236 140.815V122.837Z" fill="#6A5440"/>
<g style="mix-blend-mode:multiply" opacity="0.5">
<g style="mix-blend-mode:multiply" opacity="0.5">
<path d="M140.199 109.335C140.199 110.165 142.679 109.409 145.742 107.648L155.438 102.044C158.5 100.283 160.968 98.1756 160.968 97.3448V95.8445L140.187 107.847L140.199 109.335Z" fill="#455A64"/>
</g>
</g>
<path d="M114.236 146.817L181.748 107.847V125.825L114.236 164.808V146.817Z" fill="#6A5440"/>
<g style="mix-blend-mode:multiply" opacity="0.5">
<g style="mix-blend-mode:multiply" opacity="0.5">
<path d="M140.199 133.339C140.199 134.17 142.679 133.339 145.742 131.641L155.438 126.036C158.5 124.276 160.968 122.168 160.968 121.349V119.849L140.187 131.839L140.199 133.339Z" fill="#455A64"/>
</g>
</g>
<path d="M114.236 170.797L181.748 131.827V149.818L114.236 188.788V170.797Z" fill="#6A5440"/>
<g style="mix-blend-mode:multiply" opacity="0.5">
<g style="mix-blend-mode:multiply" opacity="0.5">
<path d="M140.199 157.306C140.199 158.137 142.679 157.381 145.742 155.608L155.438 150.016C158.5 148.243 160.968 146.147 160.968 145.317V143.816L140.187 155.806L140.199 157.306Z" fill="#455A64"/>
</g>
</g>
<path d="M114.236 204.336L119.431 201.347V191.788L114.236 194.788V204.336Z" fill="#896C52"/>
<path d="M176.553 167.796L181.749 164.808V155.806L176.553 158.807V167.796Z" fill="#896C52"/>
<path d="M85.3215 90.1039C90.5539 84.7599 93.6288 71.5054 88.5204 67.2029H62.5693C57.4733 71.4434 60.5359 84.7599 65.7682 90.0915L65.9046 90.2403L66.0906 90.4139C66.2389 90.5639 66.3963 90.7047 66.5618 90.8355L66.6858 90.9346L67.0825 91.2322C67.297 91.3898 67.5206 91.5347 67.7521 91.6662C70.1679 92.8886 72.8374 93.5256 75.5449 93.5256C78.2523 93.5256 80.9218 92.8886 83.3376 91.6662C83.5732 91.5349 83.8009 91.39 84.0196 91.2322L84.3792 90.9595L84.5403 90.8355L84.9991 90.4263L85.1975 90.2279L85.3215 90.1039Z" fill="#4F3C2A"/>
<path d="M64.8259 65.5043C58.8992 68.9264 58.8992 74.4688 64.8259 77.9033C70.7526 81.3378 80.3495 81.3254 86.2638 77.9033C92.1781 74.4812 92.1905 68.9512 86.2638 65.5043C80.3371 62.0574 70.7402 62.0822 64.8259 65.5043Z" fill="#6E5A37"/>
<path d="M69.0415 67.9219C65.4458 70.0049 65.4458 73.3775 69.0415 75.4605C71.0643 76.4875 73.301 77.0228 75.5696 77.0228C77.8382 77.0228 80.0748 76.4875 82.0977 75.4605C85.6934 73.3775 85.6934 70.0049 82.0977 67.9219C80.0731 66.9006 77.8372 66.3686 75.5696 66.3686C73.302 66.3686 71.0661 66.9006 69.0415 67.9219Z" fill="#455A64"/>
<path d="M82.073 71.5049C80.0501 70.4779 77.8135 69.9426 75.5449 69.9426C73.2763 69.9426 71.0396 70.4779 69.0168 71.5049C68.1465 71.9747 67.4055 72.6518 66.8594 73.4764C67.4047 74.3048 68.1457 74.9861 69.0168 75.4602C71.0396 76.4872 73.2763 77.0225 75.5449 77.0225C77.8135 77.0225 80.0501 76.4872 82.073 75.4602C82.9441 74.9861 83.6851 74.3048 84.2304 73.4764C83.6843 72.6518 82.9433 71.9747 82.073 71.5049Z" fill="#455A64"/>
<g style="mix-blend-mode:multiply" opacity="0.5">
<g style="mix-blend-mode:multiply" opacity="0.5">
<path d="M82.073 71.505C80.0501 70.478 77.8135 69.9427 75.5449 69.9427C73.2763 69.9427 71.0396 70.478 69.0168 71.505C68.1465 71.9748 67.4055 72.6519 66.8594 73.4765C67.4047 74.3049 68.1457 74.9863 69.0168 75.4603C71.0396 76.4873 73.2763 77.0226 75.5449 77.0226C77.8135 77.0226 80.0501 76.4873 82.073 75.4603C82.9441 74.9863 83.6851 74.3049 84.2304 73.4765C83.6843 72.6519 82.9433 71.9748 82.073 71.505Z" fill="#455A64"/>
</g>
</g>
<path d="M69.8226 73.4769C67.9759 71.605 66.3872 69.4951 65.0986 67.203C62.9164 63.3593 62.5196 58.1889 63.6479 57.5566C64.7762 56.9242 69.3514 62.0698 69.3514 62.0698C68.9345 59.9015 68.7722 57.6919 68.8679 55.4859C69.0663 52.0514 69.897 48.9393 70.8889 48.3069C71.8808 47.6746 74.0631 52.0266 75.0054 55.1512C75.9477 58.2757 76.4809 60.8671 76.4809 60.8671C76.8605 58.4186 77.4242 56.0022 78.1671 53.6385C79.3079 50.3899 80.3494 49.646 81.1553 49.9188C81.9612 50.1916 82.4944 51.7662 82.73 56.1183C82.8122 58.1869 82.7459 60.2587 82.5316 62.3178C82.5316 62.3178 84.1559 60.5323 85.9413 58.8089C87.9128 56.9118 88.7559 56.6515 89.3263 57.011C89.8966 57.3706 90.0454 60.3216 86.9952 65.8391C85.4747 68.6497 83.53 71.2092 81.2297 73.4273C81.2297 73.4273 77.0388 76.2047 69.8226 73.4769Z" fill="#00A355"/>
<path d="M137.658 96.5261L168.655 78.5475C169.263 78.2004 169.263 77.63 168.655 77.3076L126.077 53.0552C125.733 52.8828 125.353 52.793 124.967 52.793C124.582 52.793 124.202 52.8828 123.858 53.0552L93.1329 70.823C92.5254 71.1825 92.5254 71.7529 93.1329 72.0629L135.438 96.4889C135.78 96.6671 136.158 96.7633 136.544 96.7697C136.929 96.7762 137.31 96.6928 137.658 96.5261Z" fill="#05686F"/>
<g style="mix-blend-mode:multiply" opacity="0.5">
<g style="mix-blend-mode:multiply" opacity="0.5">
<path d="M137.658 96.5261L168.655 78.5475C169.263 78.2004 169.263 77.63 168.655 77.3076L126.077 53.0552C125.733 52.8828 125.353 52.793 124.967 52.793C124.582 52.793 124.202 52.8828 123.858 53.0552L93.1329 70.823C92.5254 71.1825 92.5254 71.7529 93.1329 72.0629L135.438 96.4889C135.78 96.6671 136.158 96.7633 136.544 96.7697C136.929 96.7762 137.31 96.6928 137.658 96.5261Z" fill="#E39B0D"/>
</g>
</g>
<path d="M93.3563 70.4886L128.297 48.2696C128.635 48.0925 129.012 48 129.394 48C129.776 48 130.153 48.0925 130.491 48.2696L143.076 55.5354C143.371 55.7139 143.588 55.9963 143.684 56.3268C143.78 56.6574 143.749 57.012 143.597 57.3208L143.089 58.3128C142.936 58.6216 142.906 58.9762 143.002 59.3068C143.098 59.6373 143.315 59.9197 143.61 60.0982L168.965 74.7662C169.1 74.819 169.216 74.9111 169.297 75.0305C169.379 75.15 169.422 75.2912 169.422 75.4358C169.422 75.5804 169.379 75.7216 169.297 75.841C169.216 75.9605 169.1 76.0526 168.965 76.1053L137.844 96.1421C137.51 96.3256 137.134 96.4217 136.753 96.4217C136.371 96.4217 135.996 96.3256 135.662 96.1421L93.3563 71.7161C93.2481 71.6543 93.1581 71.565 93.0955 71.4572C93.033 71.3494 93 71.227 93 71.1023C93 70.9777 93.033 70.8553 93.0955 70.7475C93.1581 70.6397 93.2481 70.5504 93.3563 70.4886Z" fill="#089BA5"/>
<path d="M532.343 123.519C541.345 114.331 546.639 76.9356 537.848 69.645H493.212C484.421 76.9232 489.715 114.281 498.717 123.506L498.952 123.754L499.262 124.064C499.523 124.312 499.796 124.548 500.081 124.783L500.292 124.957C500.515 125.131 500.738 125.304 500.973 125.465C501.346 125.738 501.735 125.986 502.139 126.209C509.578 130.487 521.556 130.487 528.97 126.209C529.374 125.986 529.764 125.738 530.136 125.465L530.768 124.982L531.041 124.771C531.314 124.548 531.574 124.312 531.822 124.077L532.182 123.73L532.343 123.519Z" fill="#4F3C2A"/>
<path d="M497.043 66.7065C486.839 72.596 486.839 82.1432 497.043 88.0328C507.247 93.9223 523.775 93.9099 533.967 88.0328C544.159 82.1556 544.159 72.596 533.967 66.7065C523.775 60.8169 507.235 60.8169 497.043 66.7065Z" fill="#6E5A37"/>
<path d="M501.941 69.5336C494.501 73.8609 494.501 80.8663 501.941 85.1936C509.38 89.5209 521.581 89.5209 529.057 85.1936C536.534 80.8663 536.497 73.8609 529.057 69.5336C521.618 65.2064 509.43 65.2188 501.941 69.5336Z" fill="#37474F"/>
<path d="M529.045 76.973C521.605 72.6457 509.417 72.6457 501.928 76.973C500.119 77.9531 498.577 79.3623 497.44 81.0771C498.577 82.7957 500.118 84.2091 501.928 85.1935C509.368 89.5208 521.556 89.5208 529.045 85.1935C530.86 84.2159 532.403 82.801 533.533 81.0771C532.401 79.3576 530.858 77.9472 529.045 76.973Z" fill="#E0E0E0"/>
<g style="mix-blend-mode:multiply">
<g style="mix-blend-mode:multiply">
<path d="M529.045 76.9729C521.605 72.6457 509.417 72.6457 501.928 76.9729C500.119 77.953 498.577 79.3623 497.44 81.077C498.577 82.7956 500.118 84.2091 501.928 85.1935C509.368 89.5207 521.556 89.5207 529.045 85.1935C530.86 84.2158 532.403 82.801 533.533 81.077C532.401 79.3576 530.858 77.9471 529.045 76.9729Z" fill="#263238"/>
</g>
</g>
<path d="M523.862 81.1018C526.032 74.5303 529.057 62.5033 540.303 53.4892C551.834 44.2147 563.204 36.8745 559.286 30.7866C555.715 25.2566 544.978 24.4383 532.703 33.9112C520.787 43.0864 515.406 64.1399 516.46 78.1012L523.862 81.1018Z" fill="#00A355"/>
<g opacity="0.1">
<path opacity="0.1" d="M523.862 81.1015C526.032 74.5301 529.057 62.503 540.303 53.489C551.834 44.2145 563.204 36.8743 559.286 30.7864C555.715 25.2564 544.978 24.4381 532.703 33.9109C520.787 43.0862 515.406 64.1397 516.46 78.101L523.862 81.1015Z" fill="black"/>
</g>
<path d="M518.382 79.5271H518.295C518.212 79.5179 518.132 79.4922 518.059 79.4514C517.987 79.4106 517.923 79.3556 517.872 79.2896C517.821 79.2237 517.784 79.1481 517.763 79.0674C517.742 78.9868 517.737 78.9028 517.749 78.8203C522.015 45.8265 542.547 31.2205 552.578 30.7369C552.662 30.7283 552.747 30.7373 552.827 30.7631C552.907 30.789 552.981 30.8313 553.044 30.8872C553.107 30.9432 553.157 31.0116 553.193 31.0882C553.228 31.1648 553.246 31.2479 553.248 31.3321C553.255 31.5024 553.195 31.6686 553.082 31.7959C552.968 31.9231 552.81 32.0013 552.64 32.014C545.201 32.3612 523.527 44.1651 519.014 78.9815C518.993 79.1338 518.917 79.2731 518.801 79.3735C518.684 79.4739 518.535 79.5285 518.382 79.5271Z" fill="white"/>
<path d="M507.458 82.6394C507.166 80.7889 506.435 79.0352 505.326 77.5252C504.218 76.0151 502.763 74.7927 501.085 73.9601C497.427 71.9762 492.976 73.96 488.686 67.9713C484.396 61.9826 488.153 57.1222 487.446 54.2208C486.739 51.3195 485.995 49.4224 481.11 47.3394C476.225 45.2563 474.911 42.1938 476.597 35.3247C478.283 28.4557 478.196 26.3727 474.018 23.3597C469.84 20.3467 469.641 16.5278 474.018 14.0108C478.395 11.4938 486.181 11.531 492.344 16.999C498.506 22.467 499.287 24.8228 506.069 25.4799C512.852 26.1371 516.733 26.4098 518.27 30.4395C519.808 34.4692 519.014 37.5938 518.27 41.3631C517.92 43.0836 518.155 44.8717 518.937 46.4439C519.718 48.0161 521.002 49.2825 522.585 50.0424C525.548 51.4435 530.483 52.5222 532.318 57.9281C534.153 63.3341 530.086 74.3568 524.879 81.1267C524.817 81.1019 523.577 85.0572 507.458 82.6394Z" fill="#00A355"/>
<path d="M518.803 83.2719C518.719 83.2719 518.636 83.2551 518.558 83.2226C518.481 83.19 518.411 83.1423 518.352 83.0823C518.293 83.0222 518.246 82.9511 518.215 82.8729C518.184 82.7948 518.169 82.7112 518.171 82.6271C517.97 72.0492 515.611 61.6237 511.24 51.9892C504.259 36.9244 481.953 19.1318 480.59 18.3135C480.513 18.2888 480.441 18.2484 480.381 18.1948C480.32 18.1412 480.272 18.0755 480.238 18.0021C480.204 17.9286 480.186 17.8489 480.184 17.768C480.183 17.6871 480.199 17.6069 480.23 17.5323C480.296 17.371 480.422 17.2412 480.581 17.1697C480.74 17.0982 480.921 17.0904 481.085 17.1479C481.854 17.3959 505.053 35.5853 512.393 51.4436C516.839 61.2594 519.24 71.878 519.448 82.6519C519.448 82.7355 519.431 82.8181 519.399 82.895C519.366 82.9719 519.318 83.0414 519.258 83.0993C519.198 83.1572 519.126 83.2023 519.048 83.232C518.97 83.2617 518.887 83.2752 518.803 83.2719Z" fill="white"/>
<path d="M504.048 40.5324C503.945 40.533 503.842 40.5074 503.751 40.4581C499.076 37.8915 487.905 39.7141 487.793 39.7389C487.626 39.7607 487.457 39.7176 487.321 39.6184C487.185 39.5192 487.092 39.3715 487.062 39.2058C487.048 39.1235 487.05 39.0392 487.068 38.9578C487.087 38.8764 487.121 38.7995 487.17 38.7315C487.218 38.6635 487.28 38.6058 487.35 38.5616C487.421 38.5174 487.5 38.4877 487.583 38.4742C488.054 38.3998 499.312 36.5648 504.358 39.3421C504.432 39.3823 504.497 39.4367 504.55 39.5023C504.603 39.5679 504.641 39.6433 504.665 39.7241C504.688 39.8049 504.694 39.8895 504.684 39.9729C504.674 40.0564 504.648 40.137 504.606 40.2101C504.552 40.3098 504.471 40.3926 504.373 40.4494C504.274 40.5063 504.162 40.535 504.048 40.5324Z" fill="white"/>
<path d="M517.65 71.3437C517.495 71.3611 517.339 71.3216 517.211 71.2325C517.082 71.1435 516.991 71.0109 516.953 70.8594C516.915 70.7079 516.933 70.5478 517.005 70.4088C517.076 70.2699 517.195 70.1615 517.34 70.1038C522.597 67.252 526.615 59.1927 526.652 59.1183C526.682 59.0325 526.73 58.954 526.792 58.8879C526.855 58.8218 526.93 58.7697 527.014 58.735C527.098 58.7002 527.189 58.6837 527.28 58.6863C527.37 58.689 527.46 58.7108 527.541 58.7504C527.623 58.79 527.696 58.8464 527.754 58.916C527.813 58.9857 527.856 59.0668 527.881 59.1543C527.906 59.2417 527.912 59.3334 527.899 59.4234C527.886 59.5133 527.854 59.5995 527.805 59.6762C527.631 60.0234 523.552 68.182 517.948 71.2321C517.86 71.2946 517.757 71.333 517.65 71.3437Z" fill="white"/>
<defs>
<filter id="filter0_d_3_10433" x="0" y="72" width="592.371" height="341.105" filterUnits="userSpaceOnUse" color-interpolation-filters="sRGB">
<feFlood flood-opacity="0" result="BackgroundImageFix"/>
<feColorMatrix in="SourceAlpha" type="matrix" values="0 0 0 0 0 0 0 0 0 0 0 0 0 0 0 0 0 0 127 0" result="hardAlpha"/>
<feOffset dy="4"/>
<feGaussianBlur stdDeviation="10"/>
<feComposite in2="hardAlpha" operator="out"/>
<feColorMatrix type="matrix" values="0 0 0 0 0.776372 0 0 0 0 0.945833 0 0 0 0 0.944794 0 0 0 1 0"/>
<feBlend mode="normal" in2="BackgroundImageFix" result="effect1_dropShadow_3_10433"/>
<feBlend mode="normal" in="SourceGraphic" in2="effect1_dropShadow_3_10433" result="shape"/>
</filter>
</defs>
</svg>
