<svg width="40" height="40" viewBox="0 0 40 40" fill="none" xmlns="http://www.w3.org/2000/svg">
<g clip-path="url(#clip0_78_1009)">
<path d="M20.0002 3.33325C10.8002 3.33325 3.3335 10.7999 3.3335 19.9999C3.3335 29.1999 10.8002 36.6666 20.0002 36.6666C29.2002 36.6666 36.6668 29.1999 36.6668 19.9999C36.6668 10.7999 29.2002 3.33325 20.0002 3.33325ZM20.0002 33.3333C12.6502 33.3333 6.66683 27.3499 6.66683 19.9999C6.66683 12.6499 12.6502 6.66659 20.0002 6.66659C27.3502 6.66659 33.3335 12.6499 33.3335 19.9999C33.3335 27.3499 27.3502 33.3333 20.0002 33.3333ZM21.4835 18.4999C18.5168 17.5166 17.0835 16.8999 17.0835 15.3333C17.0835 13.6333 18.9335 13.0166 20.1002 13.0166C22.2835 13.0166 23.0835 14.6666 23.2668 15.2499L25.9002 14.1333C25.6502 13.3999 24.5335 10.9499 21.4668 10.4166V8.33325H18.5502V10.4333C14.2168 11.3666 14.1835 15.1833 14.1835 15.3666C14.1835 19.1499 17.9335 20.2166 19.7668 20.8833C22.4002 21.8166 23.5668 22.6666 23.5668 24.2666C23.5668 26.1499 21.8168 26.9499 20.2668 26.9499C17.2335 26.9499 16.3668 23.8333 16.2668 23.4666L13.5002 24.5833C14.5502 28.2333 17.3002 29.2166 18.5335 29.5166V31.6666H21.4502V29.5999C22.3168 29.4499 26.4835 28.6166 26.4835 24.2333C26.5002 21.9166 25.4835 19.8833 21.4835 18.4999Z" fill="#00A3A2"/>
</g>
<defs>
<clipPath id="clip0_78_1009">
<rect width="40" height="40" fill="white"/>
</clipPath>
</defs>
</svg>
