<svg width="40" height="40" viewBox="0 0 40 40" fill="none" xmlns="http://www.w3.org/2000/svg">
<g clip-path="url(#clip0_78_1013)">
<path d="M30 26.7999C28.7333 26.7999 27.6 27.2999 26.7333 28.0833L14.85 21.1666C14.9333 20.7833 15 20.3999 15 19.9999C15 19.5999 14.9333 19.2166 14.85 18.8333L26.6 11.9833C27.5 12.8166 28.6833 13.3333 30 13.3333C32.7667 13.3333 35 11.0999 35 8.33325C35 5.56659 32.7667 3.33325 30 3.33325C27.2333 3.33325 25 5.56659 25 8.33325C25 8.73325 25.0667 9.11659 25.15 9.49992L13.4 16.3499C12.5 15.5166 11.3167 14.9999 10 14.9999C7.23333 14.9999 5 17.2333 5 19.9999C5 22.7666 7.23333 24.9999 10 24.9999C11.3167 24.9999 12.5 24.4833 13.4 23.6499L25.2667 30.5833C25.1833 30.9333 25.1333 31.2999 25.1333 31.6666C25.1333 34.3499 27.3167 36.5333 30 36.5333C32.6833 36.5333 34.8667 34.3499 34.8667 31.6666C34.8667 28.9833 32.6833 26.7999 30 26.7999ZM30 6.66659C30.9167 6.66659 31.6667 7.41659 31.6667 8.33325C31.6667 9.24992 30.9167 9.99992 30 9.99992C29.0833 9.99992 28.3333 9.24992 28.3333 8.33325C28.3333 7.41659 29.0833 6.66659 30 6.66659ZM10 21.6666C9.08333 21.6666 8.33333 20.9166 8.33333 19.9999C8.33333 19.0833 9.08333 18.3333 10 18.3333C10.9167 18.3333 11.6667 19.0833 11.6667 19.9999C11.6667 20.9166 10.9167 21.6666 10 21.6666ZM30 33.3666C29.0833 33.3666 28.3333 32.6166 28.3333 31.6999C28.3333 30.7833 29.0833 30.0333 30 30.0333C30.9167 30.0333 31.6667 30.7833 31.6667 31.6999C31.6667 32.6166 30.9167 33.3666 30 33.3666Z" fill="#00A3A2"/>
</g>
<defs>
<clipPath id="clip0_78_1013">
<rect width="40" height="40" fill="white"/>
</clipPath>
</defs>
</svg>
