<svg width="14" height="14" viewBox="0 0 14 14" fill="none" xmlns="http://www.w3.org/2000/svg">
<g clip-path="url(#clip0_77_999)">
<mask id="mask0_77_999" style="mask-type:luminance" maskUnits="userSpaceOnUse" x="0" y="0" width="14" height="14">
<path d="M14 0H0V14H14V0Z" fill="white"/>
</mask>
<g mask="url(#mask0_77_999)">
<path d="M4.66683 9.33342H9.3335V10.5001H4.66683V9.33342ZM4.66683 7.00008H9.3335V8.16675H4.66683V7.00008ZM8.16683 1.16675H3.50016C2.8585 1.16675 2.3335 1.69175 2.3335 2.33341V11.6667C2.3335 12.3084 2.85266 12.8334 3.49433 12.8334H10.5002C11.1418 12.8334 11.6668 12.3084 11.6668 11.6667V4.66675L8.16683 1.16675ZM10.5002 11.6667H3.50016V2.33341H7.5835V5.25008H10.5002V11.6667Z" fill="white"/>
</g>
</g>
<defs>
<clipPath id="clip0_77_999">
<rect width="14" height="14" fill="white"/>
</clipPath>
</defs>
</svg>
